<svg xmlns="http://www.w3.org/2000/svg" viewBox="0 0 96 96">
  <defs>
    <linearGradient id="bg" x1="0" x2="0" y1="0" y2="1">
      <stop offset="0%" stop-color="#1b5e20" />
      <stop offset="100%" stop-color="#43a047" />
    </linearGradient>
  </defs>
  <rect width="96" height="96" rx="16" fill="url(#bg)" />
  <path d="M48 22a4 4 0 0 1 4 4v26.34l7.66-7.66a4 4 0 1 1 5.66 5.66l-15.99 15.98a4 4 0 0 1-5.66 0L27.34 50.34a4 4 0 0 1 5.66-5.66L40.66 52.34V26a4 4 0 0 1 4-4Z" fill="#fff" />
  <path d="M28 70a4 4 0 0 1 4-4h32a4 4 0 1 1 0 8H32a4 4 0 0 1-4-4Z" fill="#c8e6c9" />
</svg>
